<svg xmlns="http://www.w3.org/2000/svg" viewBox="0 0 595.28 595.28"><title>a star is born</title><path d="M278.9,450.26,150.72,572.17c-21.88,20.8-56.3-4.2-43.27-31.44l76.33-159.58A27.19,27.19,0,0,0,172.2,345.5L16.64,261.26C-9.9,246.89,3.24,206.42,33.17,210.4l175.36,23.28a27.19,27.19,0,0,0,30.32-22l32-174c5.47-29.69,48-29.69,53.49,0l32,174a27.19,27.19,0,0,0,30.32,22L562.11,210.4c29.93-4,43.07,36.49,16.53,50.87L423.08,345.5a27.19,27.19,0,0,0-11.58,35.65l76.33,159.58c13,27.23-21.4,52.24-43.27,31.44L316.38,450.26A27.19,27.19,0,0,0,278.9,450.26Z" style="fill:none;stroke:#231f20;stroke-miterlimit:10;stroke-width:1.5746790170669556px"/></svg>